<?xml version="1.0" encoding="UTF-8"?>
<svg xmlns="http://www.w3.org/2000/svg" viewBox="0 0 500 386" width="500" height="386" role="img" aria-label="Cleaner Corners Housekeeping">
  <defs>
    <linearGradient id="houseFade" x1="0" y1="0" x2="0" y2="1">
      <stop offset="0%" stop-color="#4a1a6a"/>
      <stop offset="55%" stop-color="#243a52"/>
      <stop offset="100%" stop-color="#0e4a3a"/>
    </linearGradient>
  </defs>
  <rect width="500" height="386" fill="#fff"/>
  <g fill="url(#houseFade)">
    <ellipse cx="78" cy="148" rx="22" ry="78"/>
    <ellipse cx="108" cy="158" rx="16" ry="62"/>
    <path d="M150 170 L212 94 L274 170 Z"/>
    <rect x="170" y="134" width="14" height="28"/>
    <path d="M234 130 L294 70 L354 130 Z"/>
    <rect x="320" y="80" width="12" height="32"/>
    <rect x="170" y="170" width="88" height="62"/>
    <rect x="258" y="130" width="96" height="102"/>
    <path d="M354 152 L394 120 L430 152 L430 232 L354 232 Z"/>
    <ellipse cx="440" cy="170" rx="14" ry="52"/>
    <ellipse cx="460" cy="180" rx="11" ry="40"/>
  </g>
  <g fill="#f4f1e8">
    <rect x="188" y="188" width="22" height="26" rx="1"/>
    <rect x="218" y="188" width="22" height="26" rx="1"/>
    <rect x="204" y="200" width="20" height="32"/>
    <rect x="276" y="152" width="20" height="24" rx="1"/>
    <rect x="304" y="152" width="20" height="24" rx="1"/>
    <rect x="276" y="184" width="20" height="24" rx="1"/>
    <rect x="304" y="184" width="20" height="24" rx="1"/>
    <rect x="374" y="170" width="18" height="22" rx="1"/>
    <rect x="398" y="170" width="18" height="22" rx="1"/>
  </g>
  <path d="M20 234 C120 210 200 226 250 230 C320 236 400 216 480 232 L480 250 C400 234 320 254 250 248 C190 244 110 230 20 250 Z" fill="#0f5a40"/>
  <path d="M20 248 C130 230 220 252 280 250 C360 248 430 234 480 248 L480 264 L20 264 Z" fill="#0c4a36"/>
  <path d="M48 270 C48 250 64 238 88 238 C108 238 120 248 124 262 L102 268 C100 258 96 254 88 254 C76 254 70 262 70 278 C70 294 76 302 88 302 C96 302 100 298 102 290 L124 296 C120 312 106 322 88 322 C64 322 48 308 48 286 Z" fill="#5b1578"/>
  <path d="M62 280 H118 V292 H80 V302 H114 V314 H80 V328 H118 V340 H62 Z" fill="#5b1578"/>
  <text x="136" y="294" fill="#5b1578" font-family="Georgia, 'Times New Roman', serif" font-size="34" font-weight="700" letter-spacing="4">LEANER</text>
  <text x="136" y="336" fill="#5b1578" font-family="Georgia, 'Times New Roman', serif" font-size="34" font-weight="700" letter-spacing="4">ORNERS</text>
  <text x="250" y="364" fill="#5b1578" font-family="Georgia, 'Times New Roman', serif" font-size="16" letter-spacing="2">Housekeeping</text>
  <text x="428" y="370" fill="#5b1578" font-family="Georgia, 'Times New Roman', serif" font-size="11">TM</text>
</svg>
